<svg xmlns="http://www.w3.org/2000/svg" width="82.746" height="30.5" viewBox="0 0 82.746 30.5"><g transform="translate(-54.609 -127)"><path d="M8-11.3,4.8-8.141V0H2.875V-22.75H4.8v12.266L16.453-22.75h2.422L9.344-12.625,19.609,0H17.266ZM24.926.313a7.339,7.339,0,0,1-3.9-1.062,7.241,7.241,0,0,1-2.711-2.961,9.231,9.231,0,0,1-.969-4.258v-.672a9.948,9.948,0,0,1,.945-4.391,7.521,7.521,0,0,1,2.633-3.07,6.5,6.5,0,0,1,3.656-1.117,6.1,6.1,0,0,1,4.883,2.1,8.525,8.525,0,0,1,1.8,5.742v1.047H19.207v.359A7.079,7.079,0,0,0,20.855-3.18,5.244,5.244,0,0,0,25-1.266a6.092,6.092,0,0,0,2.648-.547,5.874,5.874,0,0,0,2.086-1.75l1.172.891A6.822,6.822,0,0,1,24.926.313Zm-.344-15.937a4.674,4.674,0,0,0-3.555,1.547,7.146,7.146,0,0,0-1.758,4.156H29.41v-.2a6.2,6.2,0,0,0-1.391-3.969A4.31,4.31,0,0,0,24.582-15.625ZM37.617.313a7.339,7.339,0,0,1-3.9-1.062,7.241,7.241,0,0,1-2.711-2.961,9.231,9.231,0,0,1-.969-4.258v-.672a9.948,9.948,0,0,1,.945-4.391,7.521,7.521,0,0,1,2.633-3.07,6.5,6.5,0,0,1,3.656-1.117,6.1,6.1,0,0,1,4.883,2.1,8.525,8.525,0,0,1,1.8,5.742v1.047H31.9v.359A7.079,7.079,0,0,0,33.547-3.18a5.244,5.244,0,0,0,4.148,1.914,6.092,6.092,0,0,0,2.648-.547,5.874,5.874,0,0,0,2.086-1.75l1.172.891A6.822,6.822,0,0,1,37.617.313Zm-.344-15.937a4.674,4.674,0,0,0-3.555,1.547,7.146,7.146,0,0,0-1.758,4.156H42.1v-.2a6.2,6.2,0,0,0-1.391-3.969A4.31,4.31,0,0,0,37.273-15.625ZM57.355-8.281A10.182,10.182,0,0,1,55.6-2.008,5.574,5.574,0,0,1,50.917.313,6.258,6.258,0,0,1,45.6-2.125V6.5H43.746V-16.906H45.48l.094,2.391a6,6,0,0,1,5.3-2.7,5.623,5.623,0,0,1,4.758,2.3,10.406,10.406,0,0,1,1.727,6.375ZM55.48-8.609a8.7,8.7,0,0,0-1.328-5.109,4.283,4.283,0,0,0-3.7-1.875,5.176,5.176,0,0,0-2.953.828A5.208,5.208,0,0,0,45.6-12.359V-4.25a4.965,4.965,0,0,0,1.922,2.219,5.542,5.542,0,0,0,2.953.766,4.243,4.243,0,0,0,3.68-1.883A9.468,9.468,0,0,0,55.48-8.609Z" transform="translate(80 151)" fill="#61656a"/><path d="M15.016-9.641H6.141L4.469,0H.609L4.547-22.75H18.609l-.562,3.188H7.859L6.688-12.8h8.891ZM17.551,0h-3.7l4.172-24h3.7Zm8.6-21.016-.719,4.109H28.32l-.484,2.813H24.929L23.336-4.625a3.238,3.238,0,0,0-.016.7q.094,1.016,1.25,1.063A7.059,7.059,0,0,0,25.882-3l-.25,2.969A8.49,8.49,0,0,1,23.3.3a3.457,3.457,0,0,1-2.9-1.32,4.778,4.778,0,0,1-.758-3.414l1.578-9.656h-2.7l.5-2.812h2.688l.719-4.109Z" transform="translate(54 151)" fill="#591ec7"/></g></svg>